<svg width="447" height="516" xmlns="http://www.w3.org/2000/svg" xmlns:xlink="http://www.w3.org/1999/xlink" overflow="hidden"><defs><clipPath id="clip0"><path d="M84 90 531 90 531 606 84 606Z" fill-rule="evenodd" clip-rule="evenodd"/></clipPath></defs><g clip-path="url(#clip0)" transform="translate(-84 -90)"><text font-family="Gill Sans MT,Gill Sans MT_MSFontService,sans-serif" font-weight="400" font-size="32" transform="translate(179.839 131)">Ask questions</text><path d="M2-5.46807e-06 2.00008 30.4-1.99992 30.4-2 5.46807e-06ZM8.31146e-05 30.4 6.00007 26.4 0.000104987 38.4-5.99993 26.4Z" transform="matrix(-1 -8.74228e-08 -8.74228e-08 1 273 237)"/><text font-family="Gill Sans MT,Gill Sans MT_MSFontService,sans-serif" font-weight="400" font-size="32" transform="translate(230.256 314)">Model <tspan x="-126.28" y="38">(process &amp; measurement)</tspan><tspan x="-90.1846" y="132">Estimate </tspan><tspan x="28.9821" y="132">parameters</tspan><tspan x="-68.5779" y="170">(point &amp; interval) </tspan><tspan x="-72.5683" y="265">Answer questions</tspan></text><path d="M2-5.46807e-06 2.00008 30.4-1.99992 30.4-2 5.46807e-06ZM8.31146e-05 30.4 6.00007 26.4 0.000104987 38.4-5.99993 26.4Z" transform="matrix(-1 -8.74228e-08 -8.74228e-08 1 273 366)"/><path d="M2-5.46807e-06 2.00008 30.4-1.99992 30.4-2 5.46807e-06ZM8.31146e-05 30.4 6.00007 26.4 0.000104987 38.4-5.99993 26.4Z" transform="matrix(-1 -8.74228e-08 -8.74228e-08 1 273 499)"/><path d="M1.40276e-06-1 8-0.999989 8 1.00001-1.40276e-06 1ZM14-0.99998 22-0.999969 22 1.00003 14 1.00002ZM28-0.999961 36-0.999949 36 1.00005 28 1.00004ZM42-0.999941 50-0.99993 50 1.00007 42 1.00006ZM56-0.999921 64-0.99991 64 1.00009 56 1.00008ZM69.5096 9.75055e-05 66.8429-3.99991 74.8429 0.000104987 66.8429 4.00009Z" transform="matrix(-1 -8.74228e-08 -8.74228e-08 1 399.843 309)"/><path d="M522 348C522 224.288 466.483 124 398 124L398 124 398 124 398 124 398 124C466.483 124 522 224.288 522 348Z" fill-rule="evenodd"/><path d="M398 572C466.483 572 522 471.712 522 348 522 471.712 466.483 572 398 572Z" fill-rule="evenodd"/><path d="M521 348.027 520.782 340.03 522.782 339.976 523 347.973ZM520.619 334.032 520.401 326.035 522.4 325.981 522.618 333.978ZM519.953 320.111 519.279 312.139 521.272 311.971 521.946 319.942ZM518.774 306.16 518.504 302.959 517.835 298.276 519.815 297.994 520.496 302.791 520.767 305.992ZM516.989 292.336 515.861 284.416 517.841 284.134 518.969 292.054ZM514.845 278.566 513.248 270.727 515.208 270.328 516.805 278.167ZM512.051 264.848 511.27 261.012 510.228 257.124 512.16 256.607 513.23 260.613 514.011 264.448ZM508.677 251.328 506.61 243.599 508.542 243.083 510.61 250.811ZM504.852 237.931 502.307 230.347 504.203 229.71 506.748 237.295ZM500.398 224.658 499.864 223.068 497.474 217.288 499.323 216.524 501.761 222.432 502.294 224.022ZM495.184 211.742 492.763 205.882 492.049 204.466 493.837 203.569 494.612 205.118 497.032 210.979ZM489.358 199.103 485.769 191.954 487.556 191.056 491.145 198.206ZM482.893 186.764 480.512 182.692 478.767 179.956 480.454 178.881 482.238 181.683 484.619 185.755ZM475.534 174.961 471.371 169.078 470.911 168.49 472.488 167.26 473.004 167.922 477.166 173.806ZM467.221 163.759 466.524 162.865 462.048 157.729 463.557 156.415 468.101 161.635 468.798 162.529ZM457.965 153.395 456.339 151.69 452.248 147.89 453.609 146.425 457.786 150.31 459.413 152.015ZM447.705 144.084 445.622 142.403 441.348 139.319 442.519 137.697 446.878 140.847 448.961 142.527ZM436.359 136.137 434.355 134.917 429.385 132.382 430.294 130.601 435.395 133.208 437.399 134.428ZM423.947 130.04 422.615 129.486 416.565 127.513 416.538 127.511 416.99 125.563 417.185 125.612 423.385 127.639 424.716 128.194ZM410.693 126.153 410.461 126.099 404.247 125.304 402.931 125.243 403.028 123.245 404.503 123.321 410.914 124.151 411.146 124.205ZM399.062 123.051 404.424 123.314 407.113 123.657 406.858 125.64 404.326 125.311 398.964 125.048ZM413.122 124.664 417.101 125.588 420.907 126.827 420.286 128.728 416.649 127.537 412.67 126.612ZM426.589 128.975 429.385 130.139 433.883 132.433 432.973 134.214 428.615 131.986 425.82 130.821ZM439.132 135.483 441.145 136.708 445.786 140.056 444.615 141.678 440.105 138.417 438.092 137.192ZM450.54 143.801 452.378 145.284 456.561 149.168 455.199 150.633 451.122 146.841 449.284 145.358ZM460.813 153.483 462.974 155.747 466.203 159.453 464.695 160.767 461.526 157.128 459.366 154.863ZM470.046 164.128 472.976 167.885 474.873 170.564 473.24 171.719 471.399 169.115 468.469 165.359ZM478.32 175.532 482.218 181.65 482.614 182.331 480.884 183.334 480.532 182.725 476.634 176.607ZM485.624 187.522 486.553 189.123 489.348 194.666 487.562 195.566 484.822 190.127 483.894 188.525ZM492.048 200.024 494.581 205.05 495.517 207.31 493.669 208.074 492.794 205.95 490.262 200.924ZM497.808 212.856 500.862 220.25 499.013 221.014 495.959 213.62ZM502.95 225.941 505.518 233.517 503.624 234.16 501.056 226.583ZM507.445 239.2 508.01 240.866 509.624 246.965 507.69 247.476 506.115 241.509 505.55 239.842ZM511.157 252.766 513.202 260.5 511.268 261.011 509.224 253.277ZM514.415 266.435 516.012 274.274 514.052 274.673 512.456 266.834ZM517.209 280.153 517.417 281.175 518.409 288.121 516.429 288.403 515.458 281.575 515.249 280.552ZM519.255 294.061 520.383 301.981 518.403 302.263 517.275 294.343ZM520.938 308.012 521.611 315.983 519.618 316.152 518.945 308.18ZM522.117 321.962 522.371 324.978 522.51 330.006 520.511 330.061 520.379 325.147 520.124 322.131ZM522.674 336.004 522.891 344.001 520.892 344.056 520.674 336.059ZM522.944 350.054 522.726 358.051 520.727 357.996 520.945 349.999ZM522.562 364.048 522.375 370.902 522.275 372.098 520.283 371.931 520.375 370.848 520.563 363.994ZM521.772 378.077 521.1 386.049 519.107 385.881 519.779 377.909ZM520.596 392.028 520.496 393.209 519.529 400.013 517.549 399.731 518.504 393.041 518.603 391.86ZM518.683 405.953 517.555 413.873 515.575 413.591 516.703 405.671ZM516.4 419.82 514.804 427.659 512.844 427.26 514.44 419.421ZM513.606 433.538 513.23 435.387 511.631 441.351 509.7 440.832 511.27 434.988 511.647 433.139ZM510.076 447.146 508.003 454.872 506.071 454.354 508.144 446.627ZM506.09 460.623 503.553 468.21 501.656 467.576 504.193 459.989ZM501.603 473.956 498.549 481.35 496.7 480.587 499.754 473.193ZM496.258 486.896 494.612 490.882 492.921 494.243 491.135 493.343 492.763 490.118 494.41 486.132ZM490.221 499.601 486.621 506.745 484.835 505.845 488.435 498.701ZM483.588 511.99 482.24 514.314 479.343 518.823 477.661 517.741 480.51 513.311 481.858 510.987ZM475.977 523.836 473.006 528.074 471.239 530.343 469.662 529.112 471.369 526.926 474.339 522.688ZM467.476 535.084 463.004 540.219 462.143 541.114 460.704 539.725 461.496 538.906 465.968 533.771ZM457.976 545.431 457.782 545.632 452.435 550.666 452.047 550.983 450.791 549.426 451.065 549.209 456.343 544.243 456.537 544.042ZM447.377 554.75 446.878 555.153 441.205 559.19 440.764 559.465 439.711 557.765 440.045 557.56 445.622 553.597 446.122 553.194ZM435.664 562.625 435.402 562.788 429.455 565.828 428.374 566.282 427.604 564.436 428.545 564.047 434.348 561.087 434.61 560.925ZM422.745 568.573 417.185 570.388 415.005 570.899 414.553 568.95 416.565 568.487 422.124 566.672ZM409.03 572.097 404.503 572.679 400.993 572.854 400.895 570.857 404.247 570.696 408.775 570.113ZM401 570.852 404.326 570.689 408.863 570.056 409.138 572.037 404.424 572.686 401.098 572.849ZM414.665 568.904 416.658 568.461 422.229 566.637 422.85 568.539 417.092 570.414 415.099 570.857ZM427.706 564.393 428.615 564.014 434.42 561.047 434.704 560.867 435.757 562.567 435.33 562.828 429.385 565.861 428.476 566.239ZM439.805 557.707 440.098 557.525 445.67 553.56 446.207 553.124 447.463 554.681 446.83 555.19 441.152 559.225 440.858 559.407ZM450.877 549.357 451.122 549.159 456.377 544.209 456.614 543.963 458.053 545.351 457.748 545.666 452.378 550.716 452.133 550.913ZM460.78 539.645 461.53 538.868 466.041 533.688 467.549 535.001 462.97 540.257 462.219 541.034ZM469.729 529.025 471.399 526.885 474.402 522.598 476.04 523.746 472.976 528.115 471.306 530.255ZM477.72 517.648 480.534 513.272 481.913 510.891 483.643 511.894 482.216 514.353 479.403 518.73ZM484.884 505.747 488.485 498.603 490.271 499.503 486.67 506.647ZM491.185 493.244 492.794 490.05 494.452 486.03 496.3 486.794 494.581 490.95 492.971 494.144ZM496.742 480.485 499.796 473.091 501.645 473.854 498.591 481.248ZM501.708 467.474 504.269 459.894 506.164 460.535 503.603 468.114ZM506.155 454.269 508.206 446.537 510.139 447.049 508.089 454.782ZM509.744 440.737 511.283 434.931 511.668 433.035 513.628 433.434 513.217 435.444 511.677 441.25ZM512.865 427.155 514.462 419.316 516.421 419.715 514.825 427.554ZM515.59 413.485 516.718 405.565 518.698 405.847 517.57 413.767ZM517.564 399.625 518.51 392.984 518.612 391.753 520.605 391.922 520.49 393.266 519.544 399.907ZM519.118 385.775 519.791 377.803 521.784 377.972 521.11 385.943ZM520.296 371.825 520.379 370.853 520.567 363.888 522.566 363.942 522.371 371.022 522.289 371.993ZM520.73 357.89 520.948 349.893 522.947 349.947 522.729 357.944Z"/><path d="M490 440C490 367.651 448.807 309 397.993 309L397.993 309 397.993 309 397.993 309 397.993 309C448.807 309 490 367.651 490 440Z" fill-rule="evenodd"/><path d="M397.993 571C448.807 571 490 512.349 490 440 490 512.349 448.807 571 397.993 571Z" fill-rule="evenodd"/><path d="M489.001 440.037 488.702 432.043 490.7 431.968 490.999 439.963ZM488.441 426.117 487.604 418.161 489.593 417.952 490.43 425.908ZM486.878 412.282 485.461 404.409 487.43 404.054 488.847 411.928ZM484.21 398.622 482.203 390.878 484.14 390.376 486.146 398.12ZM480.417 385.23 477.928 377.883 477.86 377.732 479.699 376.946 479.822 377.242 482.311 384.588ZM475.5 372.216 473.331 367.143 472.206 365.021 473.975 364.087 475.169 366.357 477.339 371.429ZM469.405 359.715 468.053 357.154 465.35 352.921 467.037 351.846 469.822 356.221 471.174 358.781ZM462.169 347.935 457.31 341.58 458.898 340.365 463.758 346.72ZM453.461 337.128 448.65 332.064 447.953 331.465 449.264 329.955 450.1 330.686 454.911 335.751ZM443.421 327.533 441.157 325.568 437.117 322.82 438.244 321.168 442.468 324.057 444.732 326.022ZM432.185 319.619 425.105 315.896 426.036 314.125 433.116 317.849ZM419.604 313.874 416.16 312.628 412.049 311.736 412.477 309.782 416.84 310.747 420.284 311.993ZM406.309 310.612 398.33 310.031 398.475 308.037 406.454 308.618ZM403.529 308.405 407.448 308.69C407.495 308.694 407.543 308.7 407.589 308.711L411.566 309.582 411.137 311.536 407.161 310.664 407.302 310.685 403.384 310.399ZM417.526 310.995 425.049 313.716 424.369 315.597 416.846 312.876ZM430.52 316.484 434.215 318.427 437.473 320.642 436.346 322.294 433.285 320.198 429.589 318.254ZM442.517 324.1 448.559 329.343 447.248 330.854 441.206 325.61ZM452.891 333.624 457.225 338.186 458.331 339.624 456.743 340.839 455.775 339.564 451.441 335.002ZM461.976 344.39 463.794 346.768 466.535 351.059 464.849 352.134 462.206 347.982 460.387 345.605ZM469.761 356.118 469.781 356.15 473.539 363.262 471.771 364.196 468.094 357.225 468.074 357.194ZM476.186 368.732 479.332 376.088 477.493 376.874 474.347 369.519ZM481.37 381.81 483.697 388.679 483.906 389.473 481.969 389.974 481.803 389.321 479.476 382.452ZM485.41 395.281 486.843 400.812 487.264 403.136 485.296 403.49 484.907 401.313 483.474 395.783ZM488.327 409.041 489.109 413.385 489.495 417.024 487.506 417.233 487.141 413.74 486.359 409.395ZM490.123 422.991 490.495 426.52 490.666 431.036 488.667 431.111 488.505 426.73 488.134 423.201ZM490.89 437.032 490.999 439.963 490.81 445.101 488.811 445.026 489.001 440.037 488.891 437.106ZM490.586 451.097 490.499 453.412 489.897 459.131 487.908 458.921 488.501 453.338 488.587 451.022ZM489.266 465.098 489.119 466.48 487.944 473.058 485.975 472.705 487.131 466.27 487.277 464.888ZM486.886 478.964 486.859 479.114 484.875 486.785 482.939 486.284 484.891 478.761 484.918 478.611ZM483.252 492.635 480.685 500.211 478.791 499.57 481.358 491.993ZM478.492 505.875 475.346 513.23 473.507 512.444 476.653 505.088ZM472.543 518.626 469.822 523.779 468.613 525.682 466.927 524.606 468.053 522.846 470.774 517.692ZM465.387 530.741 463.843 533.163 460.663 537.297 459.079 536.077 462.157 532.087 463.701 529.665ZM456.901 542.095 451.415 547.918 449.959 546.547 455.445 540.724ZM446.944 552.059 442.468 555.943 440.663 557.182 439.536 555.53 441.157 554.432 445.633 550.548ZM435.706 560.563 434.314 561.514 428.627 564.512 427.696 562.741 433.186 559.861 434.579 558.911ZM423.038 567.011 416.84 569.253 415.337 569.591 414.909 567.637 416.16 567.372 422.358 565.13ZM409.477 570.876 407.589 571.289C407.542 571.3 407.495 571.306 407.448 571.31L401.396 571.751 401.251 569.756 407.302 569.315 407.161 569.336 409.048 568.922ZM400.463 569.813 407.302 569.315 407.161 569.336 408.277 569.091 408.705 571.045 407.589 571.289C407.542 571.3 407.495 571.306 407.448 571.31L400.609 571.808ZM414.138 567.806 416.286 567.336 421.615 565.399 422.295 567.28 416.714 569.289 414.566 569.76ZM426.998 563.109 433.285 559.802 433.927 559.356 435.054 561.008 434.215 561.573 427.929 564.879ZM438.884 555.975 441.249 554.361 445.037 551.066 446.348 552.576 442.376 556.014 440.011 557.627ZM449.418 547.121 454.904 541.298 456.359 542.67 450.874 548.493ZM458.597 536.702 462.208 532.015 463.277 530.331 464.963 531.406 463.792 533.235 460.181 537.923ZM466.502 525.272 468.094 522.775 470.406 518.39 472.174 519.324 469.781 523.85 468.189 526.347ZM473.207 513.084 473.366 512.783 476.343 505.814 478.182 506.601 475.134 513.717 474.975 514.018ZM478.537 500.317 481.104 492.741 482.999 493.382 480.432 500.959ZM482.741 487.048 484.747 479.304 486.683 479.805 484.677 487.549ZM485.836 473.482 487.141 466.199 487.194 465.673 489.183 465.883 489.109 466.551 487.805 473.835ZM487.825 459.706 488.506 453.27 488.558 451.811 490.556 451.886 490.494 453.48 489.814 459.916ZM488.782 445.815 489.001 439.963 490.999 440.037 490.781 445.89Z"/><path d="M2-5.46807e-06 2.00008 30.4-1.99992 30.4-2 5.46807e-06ZM8.31146e-05 30.4 6.00007 26.4 0.000104987 38.4-5.99993 26.4Z" transform="matrix(-1 -8.74228e-08 -8.74228e-08 1 273 147)"/><text font-family="Gill Sans MT,Gill Sans MT_MSFontService,sans-serif" font-weight="400" font-size="32" transform="translate(181.166 224)">(Collect data)</text><path d="M3.05086e-06-1 8-0.999976 8 1.00002-3.05086e-06 1ZM14-0.999957 22-0.999933 22 1.00007 14 1.00004ZM28-0.999915 29.0788-0.999911 29.0788 1.00009 28 1.00009ZM29.0788 8.87156e-05 26.4122-3.99992 34.4122 0.000104987 26.4122 4.00008Z" transform="matrix(-1 -8.74228e-08 -8.74228e-08 1 402.412 124)"/></g></svg>