<svg width="527" height="81" xmlns="http://www.w3.org/2000/svg" xmlns:xlink="http://www.w3.org/1999/xlink" overflow="hidden"><defs><clipPath id="clip0"><path d="M257 202 784 202 784 283 257 283Z" fill-rule="evenodd" clip-rule="evenodd"/></clipPath></defs><g clip-path="url(#clip0)" transform="translate(-257 -202)"><rect x="261" y="213" width="98" height="61" fill="#0070C0"/><rect x="546" y="213" width="96" height="60" fill="#FF0000"/><rect x="686" y="214" width="97" height="61" fill="#00B050"/><text font-family="Gill Sans MT,Gill Sans MT_MSFontService,sans-serif" font-weight="400" font-size="32" transform="translate(303.99 244)">S<tspan x="422.309" y="1">R</tspan><tspan font-size="19" x="-34.9469" y="21">Susceptible</tspan><tspan font-size="19" x="395.012" y="21">Removed</tspan><tspan font-size="19" x="255.428" y="22">Infectious</tspan><tspan x="285.889" y="-1">I</tspan></text><path d="M358 240 399.068 240 399.068 244 358 244ZM388.076 233.273 403.037 242 388.076 250.728C387.122 251.284 385.897 250.962 385.34 250.008 384.784 249.054 385.106 247.829 386.06 247.273L398.06 240.273 398.06 243.728 386.06 236.728C385.106 236.171 384.784 234.946 385.34 233.992 385.897 233.038 387.122 232.716 388.076 233.273Z"/><path d="M641 239 682.068 239 682.068 243 641 243ZM671.076 232.273 686.037 241 671.076 249.728C670.122 250.284 668.897 249.962 668.34 249.008 667.784 248.054 668.106 246.829 669.06 246.273L681.06 239.273 681.06 242.728 669.06 235.728C668.106 235.171 667.784 233.946 668.341 232.992 668.897 232.038 670.122 231.716 671.076 232.273Z"/><rect x="403" y="213" width="98" height="61" fill="#FFC000"/><text font-family="Gill Sans MT,Gill Sans MT_MSFontService,sans-serif" font-weight="400" font-size="32" transform="translate(443.541 244)">E<tspan font-size="19" x="-23.2306" y="21">Exposed</tspan></text><path d="M501 240 542.068 240 542.068 244 501 244ZM531.076 233.273 546.037 242 531.076 250.728C530.122 251.284 528.897 250.962 528.34 250.008 527.784 249.054 528.106 247.829 529.06 247.273L541.06 240.273 541.06 243.728 529.06 236.728C528.106 236.171 527.784 234.946 528.341 233.992 528.897 233.038 530.122 232.716 531.076 233.273Z"/></g></svg>