<svg width="571" height="163" xmlns="http://www.w3.org/2000/svg" xmlns:xlink="http://www.w3.org/1999/xlink" overflow="hidden"><defs><clipPath id="clip0"><path d="M257 120 828 120 828 283 257 283Z" fill-rule="evenodd" clip-rule="evenodd"/></clipPath></defs><g clip-path="url(#clip0)" transform="translate(-257 -120)"><rect x="261" y="213" width="98" height="61" fill="#0070C0"/><rect x="546" y="213" width="96" height="60" fill="#FF0000"/><rect x="686" y="214" width="97" height="61" fill="#00B050"/><text font-family="Gill Sans MT,Gill Sans MT_MSFontService,sans-serif" font-weight="400" font-size="32" transform="translate(303.99 244)">S<tspan x="422.309" y="1">R</tspan><tspan font-size="19" x="-34.9469" y="21">Susceptible</tspan><tspan font-size="19" x="395.012" y="21">Removed</tspan><tspan font-size="19" x="255.428" y="22">Infectious</tspan><tspan x="285.889" y="-1">I</tspan></text><path d="M358 236 399.068 236 399.068 240 358 240ZM388.076 229.273 403.037 238 388.076 246.728C387.122 247.284 385.897 246.962 385.34 246.008 384.784 245.054 385.106 243.829 386.06 243.273L398.06 236.273 398.06 239.728 386.06 232.728C385.106 232.171 384.784 230.946 385.34 229.992 385.897 229.038 387.122 228.716 388.076 229.273Z"/><path d="M641 237 682.068 237 682.068 241 641 241ZM671.076 230.273 686.037 239 671.076 247.728C670.122 248.284 668.897 247.962 668.34 247.008 667.784 246.054 668.106 244.829 669.06 244.273L681.06 237.273 681.06 240.728 669.06 233.728C668.106 233.171 667.784 231.946 668.341 230.992 668.897 230.038 670.122 229.716 671.076 230.273Z"/><rect x="403" y="213" width="98" height="61" fill="#FFC000"/><text font-family="Gill Sans MT,Gill Sans MT_MSFontService,sans-serif" font-weight="400" font-size="32" transform="translate(443.541 244)">E<tspan font-size="19" x="-23.2306" y="21">Exposed</tspan></text><path d="M501 238 542.068 238 542.068 242 501 242ZM531.076 231.273 546.037 240 531.076 248.728C530.122 249.284 528.897 248.962 528.34 248.008 527.784 247.054 528.106 245.829 529.06 245.273L541.06 238.273 541.06 241.728 529.06 234.728C528.106 234.171 527.784 232.946 528.341 231.992 528.897 231.038 530.122 230.716 531.076 231.273Z"/><path d="M648.361 144.617C646.639 136.352 655.506 128.74 668.167 127.615 673.297 127.16 678.513 127.841 682.981 129.55 687.714 123.724 698.775 121.51 707.687 124.605 709.245 125.146 710.675 125.832 711.933 126.641 715.619 121.812 724.599 119.85 731.99 122.259 734.035 122.926 735.819 123.89 737.205 125.077 743.148 120.511 753.648 119.947 760.658 123.817 763.604 125.444 765.59 127.688 766.275 130.164 776.011 131.899 781.754 138.468 779.103 144.838 778.881 145.374 778.601 145.898 778.267 146.408 786.075 153.046 784.164 162.558 773.997 167.656 770.833 169.243 767.095 170.271 763.145 170.639 763.057 177.78 754.113 183.522 743.167 183.465 739.51 183.446 735.933 182.767 732.831 181.503 729.129 189.509 716.215 194.034 703.988 191.61 698.864 190.594 694.436 188.446 691.461 185.531 678.942 190.462 662.692 187.81 655.167 179.608 655.072 179.504 654.979 179.4 654.887 179.296 646.694 179.922 639.273 176.104 638.311 170.769 637.798 167.926 639.236 165.079 642.241 162.989 635.147 160.262 632.764 154.277 636.918 149.62 639.315 146.934 643.519 145.158 648.236 144.839Z" fill="#C0504D" fill-rule="evenodd"/><path d="M538.243 195.218C538.243 196.308 537.36 197.191 536.271 197.191 535.182 197.191 534.299 196.308 534.299 195.218 534.299 194.129 535.182 193.246 536.271 193.246 537.36 193.246 538.243 194.129 538.243 195.218Z" fill="#C0504D" fill-rule="evenodd"/><path d="M574.161 187.609C574.161 189.788 572.395 191.554 570.217 191.554 568.038 191.554 566.272 189.788 566.272 187.609 566.272 185.431 568.038 183.665 570.217 183.665 572.395 183.665 574.161 185.431 574.161 187.609Z" fill="#C0504D" fill-rule="evenodd"/><path d="M613.928 179.137C613.928 182.405 611.279 185.054 608.012 185.054 604.744 185.054 602.095 182.405 602.095 179.137 602.095 175.87 604.744 173.221 608.012 173.221 611.279 173.221 613.928 175.87 613.928 179.137Z" fill="#C0504D" fill-rule="evenodd"/><text font-family="Gill Sans MT,Gill Sans MT_MSFontService,sans-serif" font-weight="400" font-size="21" transform="translate(680.612 171)">Reported <tspan font-family="Calibri,Calibri_MSFontService,sans-serif" font-size="27" x="-314.973" y="51">μ</tspan><tspan font-family="Calibri,Calibri_MSFontService,sans-serif" font-size="27" x="-172.348" y="53">μ</tspan><tspan font-family="Calibri,Calibri_MSFontService,sans-serif" font-size="27" x="-30.3731" y="56">μ</tspan><tspan font-family="Calibri,Calibri_MSFontService,sans-serif" font-style="italic" font-size="16" x="-298.815" y="56">SE</tspan><tspan font-family="Calibri,Calibri_MSFontService,sans-serif" font-style="italic" font-size="16" x="-156.712" y="55">EI</tspan><tspan font-family="Calibri,Calibri_MSFontService,sans-serif" font-style="italic" font-size="16" x="-13.8105" y="56">IR</tspan></text></g></svg>