<svg width="579" height="209" xmlns="http://www.w3.org/2000/svg" xmlns:xlink="http://www.w3.org/1999/xlink" overflow="hidden"><defs><clipPath id="clip0"><path d="M194 129 773 129 773 338 194 338Z" fill-rule="evenodd" clip-rule="evenodd"/></clipPath></defs><g clip-path="url(#clip0)" transform="translate(-194 -129)"><rect x="261" y="213" width="98" height="61" fill="#0070C0"/><rect x="404" y="213" width="97" height="60" fill="#FF0000"/><rect x="545" y="214" width="97" height="61" fill="#00B050"/><text font-family="Gill Sans MT,Gill Sans MT_MSFontService,sans-serif" font-weight="400" font-size="32" transform="translate(303.99 244)">S<tspan x="281.15" y="1">R</tspan><tspan font-size="19" x="-34.9469" y="21">Susceptible</tspan><tspan font-size="19" x="253.854" y="21">Removed</tspan><tspan font-size="19" x="114.27" y="22">Infectious</tspan><tspan x="144.731" y="-1">I</tspan></text><path d="M358 240 399.068 240 399.068 244 358 244ZM388.076 233.273 403.037 242 388.076 250.728C387.122 251.284 385.897 250.962 385.34 250.008 384.784 249.054 385.106 247.829 386.06 247.273L398.06 240.273 398.06 243.728 386.06 236.728C385.106 236.171 384.784 234.946 385.34 233.992 385.897 233.038 387.122 232.716 388.076 233.273Z"/><path d="M500 239 541.068 239 541.068 243 500 243ZM530.076 232.273 545.037 241 530.076 249.728C529.122 250.284 527.897 249.962 527.34 249.008 526.784 248.054 527.106 246.829 528.06 246.273L540.06 239.273 540.06 242.728 528.06 235.728C527.106 235.171 526.784 233.946 527.341 232.992 527.897 232.038 529.122 231.716 530.076 232.273Z"/><path d="M214 240 255.068 240 255.068 244 214 244ZM244.076 233.273 259.037 242 244.076 250.728C243.122 251.284 241.897 250.962 241.34 250.008 240.784 249.054 241.106 247.829 242.06 247.273L254.06 240.273 254.06 243.728 242.06 236.728C241.106 236.171 240.784 234.946 241.34 233.992 241.897 233.038 243.122 232.716 244.076 233.273Z"/><path d="M312 275 312 316.068 308 316.068 308 275ZM318.727 305.076 310 320.037 301.272 305.076C300.716 304.122 301.038 302.897 301.992 302.34 302.946 301.784 304.171 302.106 304.727 303.06L311.727 315.06 308.272 315.06 315.272 303.06C315.829 302.106 317.054 301.784 318.008 302.34 318.962 302.897 319.284 304.122 318.727 305.076Z"/><path d="M456 274 456 315.068 452 315.068 452 274ZM462.727 304.076 454 319.037 445.272 304.076C444.716 303.122 445.038 301.897 445.992 301.34 446.946 300.784 448.171 301.106 448.727 302.06L455.727 314.06 452.272 314.06 459.272 302.06C459.829 301.106 461.054 300.784 462.008 301.34 462.962 301.897 463.284 303.122 462.727 304.076Z"/><path d="M595 274 595 315.068 591 315.068 591 274ZM601.727 304.076 593 319.037 584.272 304.076C583.716 303.122 584.038 301.897 584.992 301.34 585.946 300.784 587.171 301.106 587.727 302.06L594.727 314.06 591.272 314.06 598.272 302.06C598.829 301.106 600.054 300.784 601.008 301.34 601.962 301.897 602.284 303.122 601.727 304.076Z"/><text font-family="Calibri,Calibri_MSFontService,sans-serif" font-style="italic" font-weight="400" font-size="16" transform="translate(381.796 231)">SI<tspan font-style="normal" font-size="27" x="-171.032" y="-3">μ</tspan><tspan font-style="normal" font-size="27" x="-16.1577" y="-4">μ</tspan><tspan font-style="normal" font-size="27" x="124.984" y="-5">μ</tspan><tspan font-style="normal" font-size="27" x="-58.8034" y="70">μ</tspan><tspan font-style="normal" font-size="27" x="89.7294" y="70">μ</tspan><tspan font-style="normal" font-size="27" x="225.973" y="70">μ</tspan><tspan x="-43.1372" y="73">S</tspan><tspan font-style="normal" x="-35.9706" y="73">•</tspan><tspan x="106.404" y="73">I</tspan><tspan font-style="normal" x="110.404" y="73">•</tspan><tspan x="242.061" y="74">R</tspan><tspan font-style="normal" x="250.728" y="74">•</tspan><tspan x="141.846" y="-3">IR</tspan><tspan font-style="normal" x="-156.575" y="1">•</tspan>S</text><path d="M591.076 152.617C589.133 144.352 599.139 136.74 613.425 135.615 619.214 135.16 625.099 135.841 630.14 137.55 635.481 131.724 647.963 129.51 658.018 132.605 659.776 133.146 661.39 133.832 662.809 134.641 666.969 129.812 677.102 127.85 685.441 130.259 687.749 130.926 689.762 131.89 691.326 133.077 698.031 128.511 709.879 127.947 717.79 131.817 721.114 133.444 723.355 135.688 724.128 138.164 735.114 139.899 741.595 146.468 738.603 152.838 738.352 153.374 738.036 153.898 737.659 154.408 746.47 161.046 744.313 170.558 732.841 175.656 729.271 177.243 725.053 178.27 720.595 178.639 720.496 185.78 710.404 191.522 698.054 191.465 693.927 191.446 689.891 190.767 686.39 189.503 682.213 197.509 667.642 202.034 653.845 199.61 648.063 198.594 643.067 196.446 639.709 193.531 625.583 198.462 607.247 195.81 598.756 187.608 598.649 187.504 598.544 187.4 598.44 187.296 589.195 187.922 580.821 184.104 579.736 178.769 579.158 175.926 580.78 173.079 584.17 170.989 576.166 168.262 573.477 162.277 578.164 157.62 580.869 154.934 585.612 153.158 590.936 152.839Z" fill="#C0504D" fill-rule="evenodd"/><path d="M466.568 203.218C466.568 204.308 465.685 205.191 464.596 205.191 463.507 205.191 462.624 204.308 462.624 203.218 462.624 202.129 463.507 201.246 464.596 201.246 465.685 201.246 466.568 202.129 466.568 203.218Z" fill="#C0504D" fill-rule="evenodd"/><path d="M507.002 195.578C507.002 197.756 505.236 199.522 503.058 199.522 500.879 199.522 499.113 197.756 499.113 195.578 499.113 193.399 500.879 191.633 503.058 191.633 505.236 191.633 507.002 193.399 507.002 195.578Z" fill="#C0504D" fill-rule="evenodd"/><path d="M551.305 187.169C551.305 190.436 548.656 193.085 545.389 193.085 542.121 193.085 539.472 190.436 539.472 187.169 539.472 183.901 542.121 181.252 545.389 181.252 548.656 181.252 551.305 183.901 551.305 187.169Z" fill="#C0504D" fill-rule="evenodd"/><text font-family="Gill Sans MT,Gill Sans MT_MSFontService,sans-serif" font-weight="400" font-size="21" transform="translate(624.867 169)">Reported <tspan font-family="Calibri,Calibri_MSFontService,sans-serif" font-size="24" x="-174.028" y="28">ρ</tspan></text></g></svg>